# xmcd
#
# Track frame offsets: 
#        151
#        20260
#        79231
#        97858
#        120245
#        140692
#        161681
#        178849
#        196787
#        225413
#        240121
#
# Disc length: 3673 seconds
#
# Revision: 0
# Processed by: cddbd v1.4PL0 Copyright (c) Steve Scherf et al.
# Submitted via: ExactAudioCopy v0.90b4
#
DISCID=770e570b
DTITLE=Van Morrison - Soul, disc 2
DYEAR=1998
DGENRE=Celtic
TTITLE0=Vanlose Stairway > Trans-Euro Train
TTITLE1=See Me Through > Soldier Of Fortune > Thank You (Falletinme Be
TTITLE1=Mice Elf Agin) > Burning Ground
TTITLE2=It Once Was My Life
TTITLE3=Raincheck
TTITLE4=Drumshanbo Hustle
TTITLE5=Sometimes We Cry
TTITLE6=For Mr. Thomas
TTITLE7=That's Life
TTITLE8=Summertime In England
TTITLE9=Whenever God Shines His Light
TTITLE10=Cyprus Avenue
EXTD=
EXTT0=
EXTT1=
EXTT2=
EXTT3=
EXTT4=
EXTT5=
EXTT6=
EXTT7=
EXTT8=
EXTT9=
EXTT10=
PLAYORDER=
